<?xml version="1.0" encoding="UTF-8"?>
<svg id="Layer_1" xmlns="http://www.w3.org/2000/svg" version="1.1" viewBox="0 0 1080 1080">
  <!-- Generator: Adobe Illustrator 30.8.1, SVG Export Plug-In . SVG Version: 2.1.4 Build 1)  -->
  <defs>
    <style>
      .st0 {
        fill: #cab6ff;
        mix-blend-mode: multiply;
      }

      .st0, .st1 {
        isolation: isolate;
      }

      .st2 {
        fill: #ef3737;
      }

      .st3 {
        fill: #fff;
      }
    </style>
  </defs>
  <g class="st1">
    <g id="Layer_11" data-name="Layer_1">
      <g>
        <g>
          <path class="st2" d="M339.96,763.35c-41.66-5.65-83.68-9.2-124.39-20.7-18.96-5.36-36.85-13.46-54.93-21.06-8.63-3.63-10.1-6.57-8.19-16.05,1.17-5.83-.33-11.17-.99-16.67-2.64-22.15,2.71-43.07,9.97-63.56,11.43-32.27,26.32-62.82,46.77-90.49,10.4-14.08,15.95-30.54,21.68-46.76,27.5-77.72,79.14-135.8,147.16-180.17,39.58-25.82,83.05-43.35,128.49-56.11,23.38-6.56,47.27-7.88,71.39-8.37,20.49-.41,40.88.99,61.3,1.69,22.07.76,43.8,4.45,65.42,9.13,14.49,3.14,28.74,6.39,42.71,11.76,22.09,8.5,27.02,28.35,23.95,43.19-4.32,20.88-15.42,37.61-33.12,49.83-7.81,5.4-16.61,8.12-25.8,9.16-6.49.73-8.9,3.53-8.93,9.91-.02,6.4-1.04,12.78-1.63,19.17-2.22,23.68-12.15,43.71-28.3,61-19.42,20.8-19.43,22.05-9.15,48.81,16.54,43.05,32.57,86.28,45.33,130.62,7.48,26,6.41,28.25-15.49,44.17-40.73,29.61-85.97,49.78-134.43,62.62-30.17,7.99-60.27,16.62-91.55,19.61-24.77,2.38-49.52,3.79-74.39,1.96-17.59-1.3-35.3-.46-52.87-2.72v.02Z"/>
          <path class="st0" d="M771.62,305.59c-5.01,16.02-9.38,31.72-22.34,43.43-10.97,9.92-22.6,17.99-37.69,19.4-7.19.67-9.08,4.66-9.63,11.18-.97,11.55-1.52,23.12-4.23,34.54-4.43,18.66-14.62,33.99-27.95,46.8-13.14,12.62-15.3,25.13-8.35,41.87,17.05,41.07,30.94,83.34,44.67,125.64,2.34,7.21,3.5,14.8,5.6,22.09,3.1,10.75-.53,18.8-9.21,25.12-18.79,13.68-38.27,26.14-59.09,36.64-55,27.73-113.84,42.22-174.18,51.76-6.3.99-12.67,1.57-19.04,1.94-6.7.38-8.86-2.24-7.12-8.79,1.23-4.62,3.62-8.73,6.37-12.79,18.63-27.59,35.54-56.22,49.78-86.32,8.25-17.42,12.17-36.27,15.58-55.17,2.93-16.25,8.16-31.8,16.15-46.21,13.2-23.84,26.54-47.62,42.76-69.6,6.32-8.57,9.62-18.28,12.13-28.46,7.8-31.61,24.52-57.93,47.9-80.32,12.86-12.32,28.09-21.29,43.13-30.38,8.35-5.05,12.07-10.69,13.35-20.65,3.29-25.59,16.72-44.78,41.42-54.35,23.67-9.17,35.55,1.51,38.64,23.42.45,3.16.93,6.3,1.37,9.21h0Z"/>
        </g>
        <g>
          <path class="st3" d="M337.94,908.47c-25.9-1.72-49.37-6.55-73.01-10.89-29.3-5.38-57.38-13.88-84.9-24.89-9.34-3.73-18.11-8.42-26.83-13.32-9.03-5.07-17.47-10.98-27.2-15.09-9.35-3.94-15.91-12.58-19.81-21.85-7.65-18.2-12.1-37.58-11.96-57.24.18-24.13,12.95-42.32,32.02-56.31,2.58-1.89,5.4-3.45,8.15-5.09,10.44-6.2,20.37-7.7,32.75-2.98,15.91,6.06,33.04,9.16,49.81,12.72,35.28,7.49,71.01,12.01,106.99,14.74,16.4,1.24,32.76.14,49.11.38,20.44.31,40.72-1.13,61.04-2.53,45.79-3.18,91.73-5.4,136.6-16.29,19.89-4.83,39.05-11.85,57.68-20.34,17.87-8.14,35.57-16.6,52.64-26.35,9.46-5.39,18.51-11.2,23.95-21.1,2.4-4.37,6.27-4.18,10.42-3.95,18.75.99,33.61,10.16,46.18,23.04,15.07,15.43,25.63,33.93,31.82,54.56,6.18,20.58,1.42,39.78-10.71,56.94-7.84,11.1-16.75,21.48-25.56,31.86-6.28,7.39-14.12,13.01-22.79,17.41-57.03,28.93-116.85,50.4-178.37,67.61-44.57,12.47-90.27,16.99-136.01,20.88-27.86,2.36-56,1.92-81.99-1.92h0Z"/>
          <path class="st0" d="M614.81,869.41c.01-1.08-.15-1.66.05-1.85,17.81-17.29,21.35-39.44,21.96-62.81.16-6.11-1.63-10.16-5.76-14.77-20-22.33-46.63-31.06-74.27-38.55-9.79-2.65-19.63-3.81-29.57-4.65-14.01-1.18-27.53-4.59-41.11-7.88-5.03-1.22-10.27-1.61-15.44-2.19-6.35-.72-11.3-3.38-14.67-9.53,6.68-4.93,14.28-3.32,21.07-3.99,25.4-2.5,50.82-4.58,76.02-9.03,31.87-5.64,61.49-17.52,90.39-31.46,13.33-6.42,26.39-13.44,39.33-20.63,8.74-4.86,17.18-10.39,22.01-19.68,2.31-4.44,6-4.61,10.2-4.29,19.44,1.48,34.98,10.79,47.93,24.63,13,13.91,22.28,30.21,28.85,48.09,7.95,21.67,4.17,42.06-8.18,60.59-8.16,12.25-18.04,23.44-27.77,34.57-4.95,5.67-11.14,10.22-17.93,13.96-37.35,20.59-77.37,34.86-117.01,50.01-1.88.72-3.79,1.3-6.1-.53h-.01Z"/>
        </g>
        <g>
          <path class="st3" d="M815,218.29c2.06-3.43,3.45-5.84,4.93-8.2,5.75-9.14,13.06-15.1,24.8-12.72,3.45.7,6.56.81,9.97-1.99,19.01-15.63,34.18-15.12,50.09,2.89,5.19,5.87,9.41,7.08,16.86,6.83,16.89-.56,29.84,11.32,26.73,32.73-.11.78-.64,1.47-.85,2.24-3.34,12.74-3.55,13.11,7.44,19.44,23.87,13.75,33.46,34.03,30.65,61.33-1.5,14.62-5.18,28.31-11.73,41.27-4.2,8.32-9.39,16.06-18.7,19.43-3.09,1.12-4.25,2.81-5.04,5.84-5.41,20.53-9.67,24.15-30.17,25.05-4.76.21-6.27,2.2-6.63,6.46-.68,8.04-2.95,15.7-6.34,22.99-7.78,16.69-21.16,26.41-38.51,31.92-32.39,10.28-57.47-.3-76.72-24.43-8.35-10.47-12.16-23.34-14.61-36.46-.44-2.32-.76-4.67-1.12-6.91-3.68-.84-6.43,1.27-9.47,2.02-15.8,3.91-29.42-6.74-25.84-22.65,2.66-11.81-.67-17.55-9.35-24.4-10.28-8.11-14.02-20.05-12.54-33.44,1.25-11.28,3.19-22.46,10.3-31.5,3.74-4.75,2.65-7.92.74-12.7-11.4-28.41,5.92-69.97,39.92-76.32,12.81-2.39,24.57.72,35.96,6.22,2.88,1.39,5.61,3.06,9.22,5.05h0Z"/>
          <path class="st0" d="M948.44,392.85c-4.55,13.75-12.37,19.84-23.94,20.04-9.61.17-9.55.18-11.46,10.06-5.38,27.86-21.45,44.69-49.3,52.45-41.07,11.45-75.75-18.99-83.52-49.51-1.67-6.55-2.96-13.19-4.43-19.81-2.53-.77-4.77.3-6.79,1.44-15.61,8.78-32.04-8.73-28.76-23.13.36-1.55.04-3.43.8-4.71,3.71-6.24,1.28-9.36-4.25-13.42-16.64-12.23-21.63-29.27-16.49-48.96,1.88-7.23,3.42-14.86,8.42-20.97,1.51-1.85,2.69-4.27,5.5-3.94,3.19.37,4.65,3.07,5.69,5.63,1.4,3.45.65,7.17.01,10.68-2.23,12.48.81,23.81,7.05,34.5,3.22,5.53,6.27,11.17,9.88,16.44,8.97,13.04,19.68,23.28,37.26,22.13,12.7-.83,19.86,7.47,25.49,17.04,9.15,15.55,24.82,18.97,40.02,18.83,26.66-.25,51.71-9.38,76.11-19.81,3.64-1.56,7.38-2.89,12.69-4.96h0Z"/>
        </g>
      </g>
    </g>
  </g>
</svg>